<?xml version="1.0" encoding="iso-8859-1"?>
<!-- Uploaded to: SVG Repo, www.svgrepo.com, Generator: SVG Repo Mixer Tools -->
<svg height="20px" width="20px" version="1.1" id="Capa_1" xmlns="http://www.w3.org/2000/svg" xmlns:xlink="http://www.w3.org/1999/xlink" 
	 viewBox="0 0 58.119 58.119" xml:space="preserve">
<g>
	<g>
		<circle style="fill:currentColor;" cx="21.989" cy="10.185" r="4.547"/>
		<path style="fill:currentColor;" d="M25.983,27.411h-0.158c0-2.503,0-5.007,0-7.51c3.085-1.376,5.562-3.597,6.813-6.967
			c1.506-4.056-0.307-8.685-2.768-11.925c-1.834-2.416-5.979-0.043-4.118,2.407c1.704,2.244,3.098,4.879,2.432,7.767
			c-0.577,2.499-2.846,3.897-5.133,4.707c-0.744-0.22-1.549-0.247-2.307-0.081c-2.227-0.832-4.178-2.194-4.907-4.626
			c-0.831-2.777,0.818-5.642,2.432-7.767c1.861-2.451-2.284-4.823-4.118-2.407c-2.593,3.417-4.034,7.692-2.767,11.925
			c0.953,3.183,3.445,5.367,6.332,6.748c0,2.778,0,5.557,0,8.336l-3.814,11.396c0,0,18.361,5.007,16.852-15.819L25.983,27.411z"/>
		<path style="fill:currentColor;" d="M16.19,55.813c0,3.074,4.769,3.074,4.769,0c0-3.233,0-11.455,0-14.688H16.19
			C16.19,44.358,16.19,52.58,16.19,55.813z"/>
		<path style="fill:currentColor;" d="M43.31,15.285c-2.498,2.05-8.666,7.264-11.164,9.314c0,0,0.172,5.134-0.649,6.935
			c0,0,12.339-10.512,14.839-12.562C48.712,17.023,45.689,13.334,43.31,15.285z"/>
	</g>
</g>
</svg>