<svg width="24" height="24" viewBox="0 0 24 24" fill="currentColor" xmlns="http://www.w3.org/2000/svg">
  <circle cx="12" cy="6" r="1.5"/>
  <path d="M11 8.5c0-.3.2-.5.5-.5h1c.3 0 .5.2.5.5v2c0 .3-.2.5-.5.5h-1c-.3 0-.5-.2-.5-.5v-2z"/>
  <path d="M9 11l3 .5 3-.5c1 2 2 4 1.5 6.5-.3 1.5-1.2 2.5-2 2.5-.5 0-.8-.3-1-.8-.2-.5-.3-1.2-.3-2.2 0-.5-.2-.8-.5-.8s-.5.3-.5.8c0 1-.1 1.7-.3 2.2-.2.5-.5.8-1 .8-.8 0-1.7-1-2-2.5C8.5 15 9 13 10 11z"/>
  <path d="M8.5 10.5c-.8-.3-1.5-.5-2-.5-.5 0-.8.2-.8.5s.3.5.8.5c.5 0 1.2.2 2 .5z"/>
  <path d="M15.5 10.5c.8-.3 1.5-.5 2-.5.5 0 .8.2.8.5s-.3.5-.8.5c-.5 0-1.2.2-2 .5z"/>
</svg>
