<?xml version="1.0" encoding="iso-8859-1"?>
<!-- Uploaded to: SVG Repo, www.svgrepo.com, Generator: SVG Repo Mixer Tools -->
<svg width="20" height="20" fill="currentColor" version="1.1" id="Layer_1" xmlns="http://www.w3.org/2000/svg" xmlns:xlink="http://www.w3.org/1999/xlink" 
	 viewBox="0 0 512 512" xml:space="preserve">
<g>
	<g>
		<rect x="360.727" width="34.909" height="290.909"/>
	</g>
</g>
<g>
	<g>
		<path d="M323.724,371.819c-10.586-2.313-18.269-11.871-18.269-22.728c0-8.336,4.514-16.087,11.778-20.231l8.809-5.021v-52.175
			c0-40.718-33.128-73.846-73.847-73.846h-7.831V81.455H256V0h-58.182v81.455h11.636v116.364h-7.831
			c-40.719,0-73.847,33.128-73.847,73.846v52.175l8.809,5.021c7.265,4.144,11.778,11.895,11.778,20.231
			c0,10.857-7.683,20.415-18.269,22.727l-13.731,2.998v53.752c0,46.004,37.428,83.433,83.433,83.433h54.225
			c46.004,0,83.433-37.428,83.433-83.433v-53.751L323.724,371.819z M244.364,477.091h-34.909v-69.818h34.909V477.091z
			 M244.364,366.545h-34.909v-34.909h34.909V366.545z"/>
	</g>
</g>
</svg>