<?xml version="1.0" encoding="UTF-8"?>
<svg width="24" height="24" version="1.1" xmlns="http://www.w3.org/2000/svg">
 <path d="m18.297 11.935v9.0736c0 0.095-0.0431 0.18412-0.11752 0.24386-0.07443 0.05876-0.17139 0.08129-0.26345 0.05974-0.02645-0.0059-2.6669-0.60132-4.1799-0.23015-2.1605 0.52886-3.2455 2.0469-3.2563 2.0625-0.05876 0.08324-0.15376 0.13221-0.25463 0.13221-0.10185 0-0.19685-0.04995-0.25463-0.13221-0.01077-0.01468-1.1067-1.5366-3.2563-2.0625-1.5151-0.37216-4.1534 0.22427-4.1799 0.23015-0.09206 0.02155-0.18902-0.0011-0.26345-0.05974-0.074432-0.05876-0.11752-0.14886-0.11752-0.24386v-11.142c0-0.17237 0.13907-0.31144 0.31144-0.31144 0.17237 0 0.31144 0.13907 0.31144 0.31144v10.759c0.82167-0.15866 2.7774-0.47009 4.0869-0.14984 1.7834 0.4368 2.895 1.473 3.3631 1.9969 0.46814-0.52394 1.5797-1.5601 3.3631-1.9969 1.3084-0.32122 3.2651-0.0088 4.0869 0.14984v-8.6908c0-0.17237 0.13907-0.31144 0.31144-0.31144 0.17237 0 0.31144 0.13907 0.31144 0.31144zm-9.6252-0.80994v3.3857c0 0.51124-0.41524 0.92647-0.92647 0.92647-0.51026 0-0.92647-0.41524-0.92647-0.92647 0-0.51026 0.41524-0.92549 0.92647-0.92549 0.10479 0 0.20664 0.01861 0.30359 0.05191v-1.8627l-1.5533 1.2448v2.7872c0 0.51026-0.41524 0.92647-0.92647 0.92647-0.51026 0-0.92647-0.41523-0.92647-0.92647 0-0.51026 0.41524-0.92549 0.92647-0.92549 0.10479 0 0.20664 0.01861 0.30359 0.05191v-2.0625c0-0.095 0.043092-0.18412 0.11654-0.24288l2.1761-1.7442c0.093037-0.07542 0.22133-0.08913 0.32906-0.0382 0.10773 0.05191 0.17628 0.16061 0.17628 0.28108zm-2.798 4.6804c0-0.08129-0.031339-0.15768-0.089123-0.21448-0.056802-0.0568-0.13319-0.08913-0.21448-0.08913-0.16747 0-0.30359 0.13613-0.30359 0.30359s0.13613 0.30359 0.30359 0.30359 0.30359-0.13613 0.30359-0.30359zm2.1761-1.2947c0-0.08129-0.031339-0.15768-0.089122-0.21448-0.056802-0.0568-0.13319-0.08913-0.21448-0.08913-0.16747 0-0.30359 0.13613-0.30359 0.30359 0 0.16747 0.13613 0.30359 0.30359 0.30359 0.16747 0 0.30359-0.13613 0.30359-0.30359zm15.256-8.923-6.3424 6.3424v7.7281c0 0.095-0.04407 0.1851-0.1185 0.24484-0.07542 0.05876-0.17237 0.0803-0.26541 0.05778-0.02155-0.0049-2.1928-0.52003-3.4298-0.20077-1.7687 0.4554-2.6561 1.7609-2.6649 1.7746-0.05778 0.08619-0.15474 0.13907-0.25854 0.13907-0.10381 0-0.20175-0.05191-0.25854-0.13907-0.0088-0.01274-0.90689-1.3211-2.6639-1.7736-1.2369-0.31926-3.4082 0.19587-3.4298 0.20077-0.093039 0.02252-0.19098 0.0011-0.26541-0.05778-0.07541-0.05877-0.1185-0.14886-0.1185-0.24484v-10.741c0-0.14103 0.094999-0.26541 0.23211-0.30066 0.064637-0.016651 1.1762-0.30557 2.3603-0.32809v-0.74824c0-1.1488 0.93432-2.0831 2.0831-2.0831h1.1547c-0.86868-0.35747-1.4818-1.2134-1.4818-2.2094 0-1.3172 1.0714-2.3886 2.3886-2.3886 0.63855 0 1.2379 0.24876 1.6894 0.69927 0.45149 0.45149 0.69927 1.0508 0.69927 1.6894 0 0.99602-0.61308 1.852-1.4818 2.2094h1.1547c1.1488 0 2.0831 0.93432 2.0831 2.0841v0.74824c1.0685 0.020566 2.0762 0.25756 2.3123 0.31633l4.8195-4.8195c0.49752-0.49752 1.3065-0.49752 1.803 0 0.49752 0.49752 0.49752 1.3065 0 1.803zm-13.08-0.57489c0.97348 0 1.7658-0.79231 1.7658-1.7658 0-0.47205-0.18412-0.91569-0.5171-1.2487-0.33298-0.33298-0.77664-0.5171-1.2487-0.5171-0.97348 0-1.7658 0.79231-1.7658 1.7658 0 0.97348 0.79231 1.7658 1.7658 1.7658zm3.9518 7.9006 1.0841-0.40546-0.67869-0.67869zm7.7526-6.83-0.92256-0.92256-6.1062 6.1062 0.92256 0.92256zm-15.226 1.4573v0.76391c0.27717 0.019589 0.54942 0.059741 0.80307 0.12634 1.5386 0.4035 2.3416 1.1468 2.7188 1.6228 0.37705-0.47596 1.1811-1.2193 2.7188-1.6228 0.25365-0.066597 0.52593-0.10675 0.80307-0.12634v-0.76391c0-0.806-0.6552-1.4612-1.4602-1.4612h-4.122c-0.80502 0-1.4602 0.6552-1.4602 1.4612zm3.2104 12.995v-9.8386c-0.13025-0.23309-0.75899-1.1899-2.5648-1.6639-1.0949-0.28792-2.6541 0.002939-3.2377 0.13221v10.108c0.71885-0.14201 2.2848-0.38979 3.3466-0.11557 1.1488 0.29577 1.9636 0.90298 2.4562 1.377zm6.4266-7.9818-0.29675 0.29675c-0.03135 0.03133-0.06953 0.05582-0.11066 0.07149l-2.1781 0.81483c-0.03526 0.01371-0.07247 0.01959-0.10871 0.01959-0.08129 0-0.16061-0.03232-0.22036-0.09108-0.08618-0.08619-0.11458-0.21546-0.07149-0.32906l0.81483-2.1781c0.01567-0.04113 0.04016-0.07933 0.07149-0.11066l1.9195-1.9195c-0.67966-0.13809-2.0606-0.35552-3.0575-0.09402-1.803 0.47302-2.4327 1.4269-2.5648 1.6639v9.8376c0.49361-0.474 1.3084-1.0822 2.4572-1.378 1.0616-0.27423 2.6275-0.02546 3.3466 0.11556v-6.7204zm6.5244-8.3275c-0.25463-0.25463-0.66793-0.25463-0.92256 0l-0.49459 0.49459 0.92256 0.92256 0.49458-0.49459c0.25463-0.25463 0.25463-0.66793 0-0.92256zm-8.306 10.97c4e-3 0.17237-0.13221 0.31437-0.30457 0.31828-0.14397 0.0029-0.43973-0.08226-0.77958-0.69142-0.07542-0.13515-0.17335-0.19195-0.26247-0.21154v2.7842c0 0.01075-9.68e-4 0.02155-0.0019 0.03232-0.01665 0.50241-0.42993 0.90591-0.93627 0.90591-0.5171 0-0.93725-0.42113-0.93725-0.93725 0-0.5171 0.42015-0.93725 0.93725-0.93725 0.11066 0 0.21644 0.02056 0.31535 0.05582v-2.1859c0-0.13221 0.08324-0.24973 0.20762-0.29381 0.27423-0.09695 0.88239-0.11948 1.2203 0.48674 0.15376 0.27619 0.26052 0.35942 0.28988 0.37901 0.14005 0.02742 0.2468 0.14984 0.25072 0.29772zm-1.9685 2.1996c0-0.17335-0.14103-0.31535-0.31535-0.31535-0.17335 0-0.31437 0.14103-0.31437 0.31535 0 0.17334 0.14103 0.31535 0.31437 0.31535 0.17335 0 0.31535-0.14103 0.31535-0.31535z" stroke-width=".25072"/>
</svg>
