<?xml version="1.0" encoding="UTF-8"?>
<svg width="24" height="24" version="1.1" xmlns="http://www.w3.org/2000/svg">
 <path d="m5.5154 1.5588c-0.35526 0-0.088814-0.44407-0.48847-0.44407h-0.44407v2.1759s-0.044402 0.84373-1.0658 0.84373c-1.3322 0-1.3766-1.6431 0-1.6431 0.22204 0 0.44407 0.044407 0.62171 0.13322v-1.7319c0-0.31085 0.44407-0.22204 0.88813-0.22204 0.71052 0 0.93256 0.88813 0.48847 0.88813zm8.7927 14.388h-1.8651v2.5756c1.0214 0.22204 0.97696 1.5986 0 1.8207v2.7977c0 0.31085-0.44407 0.31085-0.44407 0v-2.7977c-0.93256-0.22204-0.97696-1.5986 0-1.8207v-2.5756h-1.8651l-1.5542 2.7977c0.71052 0.62171 0.088814 1.8651-0.88813 1.5986l-1.6431 2.8864c-0.13322 0.26645-0.5329 0.0444-0.35526-0.17763l1.6431-2.931c-0.79932-0.71052-0.088814-1.8651 0.88813-1.5986l1.421-2.6199c-0.75492-0.17763-1.3322-0.84373-1.3322-1.6875 0-0.84375 0.66611-1.5542 1.4654-1.6875 0-0.5773-0.088814-1.1102 0.26645-1.5542h-4.1742c-0.13322 0-0.22204-0.08881-0.22204-0.22204v-8.2597c0-0.13322 0.088814-0.22204 0.22204-0.22204h0.88813v-0.93256c0-0.39966 0.31085-0.71052 0.71052-0.71052h3.1972c0.66611 0 1.2434 0.39966 1.5542 0.93256 0.31085-0.5329 0.88813-0.93256 1.5542-0.93256h3.1972c0.39966 0 0.71052 0.31085 0.71052 0.71052v0.93256h0.88813c0.13322 0 0.22204 0.088815 0.22204 0.22204v8.2597c0 0.13322-0.08881 0.22204-0.22204 0.22204h-4.1742c0.35526 0.44407 0.26645 0.97696 0.26645 1.5542 0.79932 0.13322 1.4654 0.84373 1.4654 1.6875 0 0.84375-0.5773 1.5098-1.3322 1.6875l1.421 2.6199c1.0214-0.26645 1.6875 0.97696 0.93256 1.6431l1.5986 2.8864c0.17763 0.22204-0.22204 0.44407-0.35526 0.17763l-1.6431-2.8864c-0.97696 0.26645-1.5986-0.97696-0.88813-1.5986zm-4.0855-3.4193h3.9966v-0.75492c0-0.44407-0.35526-0.79932-0.75492-0.79932h-2.4424c-0.44407 0-0.79932 0.35526-0.79932 0.79932zm-0.22204 0.44407c-0.66611 0-1.2434 0.5773-1.2434 1.2434 0 0.71052 0.5773 1.2878 1.2434 1.2878h4.4407c0.66611 0 1.2434-0.5773 1.2434-1.2878 0-0.66611-0.5773-1.2434-1.2434-1.2434zm6.7054 6.9276c0.5329-0.35526 0.31085-0.97696-0.22204-0.97696-0.79932 0-0.48847 1.3322 0.22204 0.97696zm-4.4852-0.97696c-0.66611 0-0.62171 1.0214 0 1.0214 0.66611 0 0.75492-1.0214 0-1.0214zm-4.2631 0c-0.75492 0-0.66611 1.0214 0 1.0214 0.62171 0 0.66611-1.0214 0-1.0214zm-1.199-16.209h-0.66611v7.8157h12.256v-7.8157h-0.66611v6.4835c0 0.39966-0.31085 0.75492-0.71052 0.75492h-4.2631c-0.17763 0-0.35526-0.088814-0.48847-0.22204-0.13322 0.13322-0.31085 0.22204-0.48847 0.22204h-4.2631c-0.39966 0-0.71051-0.35526-0.71051-0.75492zm5.2401-0.31085c0-0.71052-0.62171-1.3322-1.3322-1.3322h-3.1972c-0.13322 0-0.26645 0.13322-0.26645 0.26645v7.86c0 0.17763 0.13322 0.31085 0.26645 0.31085h4.2631c0.13322 0 0.26645-0.13322 0.26645-0.31085zm1.7763-1.3322c-0.71051 0-1.3322 0.62171-1.3322 1.3322v6.7943c0 0.17763 0.13322 0.31085 0.26645 0.31085h4.2631c0.13322 0 0.26645-0.13322 0.26645-0.31085v-7.86c0-0.13322-0.13322-0.26645-0.26645-0.26645zm2.4424 2.3091h-2.7088c-0.31085 0-0.31085-0.44407 0-0.44407h2.7088c0.31085 0 0.31085 0.44407 0 0.44407zm0 1.421h-2.7088c-0.31085 0-0.31085-0.44407 0-0.44407h2.7088c0.31085 0 0.31085 0.44407 0 0.44407zm0 1.421h-2.7088c-0.31085 0-0.31085-0.44407 0-0.44407h2.7088c0.31085 0 0.31085 0.44407 0 0.44407zm0 1.421h-2.7088c-0.31085 0-0.31085-0.44407 0-0.44407h2.7088c0.31085 0 0.31085 0.44407 0 0.44407zm-6.6168 0.88813c-0.31085 0-0.31085-0.44407 0-0.44407 0.26645 0 0.44407-0.35526 0.39966-0.84373-1.1102 0.22204-2.0427-0.48847-2.0427-1.2878 0-0.88813 0.66611-1.3322 1.2878-1.6431-0.17763-0.66611-0.5329-1.5986 0.13322-2.0871 0.48847-0.39966 1.1546-0.13322 1.1546 0.93256 0 0.66611-0.35526 1.0658-0.79932 1.3322 0.088814 0.22204 0.13322 0.39966 0.17763 0.62171 0.044412-0.044407 0.13322-0.044407 0.17763-0.044407 1.3322-0.088814 1.5542 1.4654 0.35526 2.0427 0.08881 0.75492-0.22204 1.421-0.84373 1.421zm-0.26645-3.7747c-0.48847 0.31085-0.93256 0.5329-0.93256 1.199 0 0.5329 0.71052 1.0658 1.5542 0.84373l-0.31085-1.0658c-0.088816 0.13322-0.17763 0.31085-0.39966 0.17763-0.26645-0.17763 0.088813-0.5329 0.26645-0.62171-0.044407-0.13322-0.17763-0.5773-0.17763-0.5329zm0.71052 0.75492 0.31085 1.1102c0.71051-0.44407 0.48847-1.2434-0.31085-1.1102zm-0.5773-2.1315c0.044412 0.26645 0.13322 0.48847 0.17763 0.66611 0.71051-0.5773 0.39966-1.4654 0.22204-1.5542-0.17763-0.088809-0.5329 0.31085-0.39966 0.88813zm8.5262 12.39c-0.88813 0-1.5986-0.5329-1.5986-1.2434 0-1.1546 1.8207-1.6431 2.7977-0.84373 0-0.48847-0.04441-2.6645 0-3.2418 0-0.13322 0.04441-0.17763 0.17763-0.22204h1.1102c0.93256 0 1.2878 1.2434 0.79932 1.2434-0.13322 0-0.22204-0.08881-0.22204-0.22204 0-0.31085-0.26645-0.5773-0.5773-0.5773h-0.84373v3.8634c0 0.71052-0.71052 1.2434-1.6431 1.2434zm0-2.0427c-0.62171 0-1.1546 0.35526-1.1546 0.79932s0.5329 0.79932 1.1546 0.79932c1.5986 0 1.5986-1.5986 0-1.5986zm-14.477-10.791c-0.79932 0-0.75492 0.75492 0 0.75492 0.79932 0 0.84373-0.75492 0-0.75492z" fill-rule="evenodd" stroke-width=".22736"/>
</svg>
