<svg width="24" height="24" viewBox="0 0 24 24" fill="currentColor" xmlns="http://www.w3.org/2000/svg">
  <circle cx="12" cy="7" r="1.5"/>
  <circle cx="6" cy="10" r="1"/>
  <circle cx="8" cy="10" r="1"/>
  <circle cx="10" cy="10" r="1"/>
  <circle cx="14" cy="10" r="1"/>
  <circle cx="16" cy="10" r="1"/>
  <circle cx="18" cy="10" r="1"/>
  <circle cx="5" cy="13" r="1"/>
  <circle cx="7" cy="13" r="1"/>
  <circle cx="9" cy="13" r="1"/>
  <circle cx="11" cy="13" r="1"/>
  <circle cx="13" cy="13" r="1"/>
  <circle cx="15" cy="13" r="1"/>
  <circle cx="17" cy="13" r="1"/>
  <circle cx="19" cy="13" r="1"/>
  <circle cx="6" cy="16" r="1"/>
  <circle cx="8" cy="16" r="1"/>
  <circle cx="10" cy="16" r="1"/>
  <circle cx="14" cy="16" r="1"/>
  <circle cx="16" cy="16" r="1"/>
  <circle cx="18" cy="16" r="1"/>
</svg>
