<?xml version="1.0" encoding="UTF-8"?>
<svg width="24" height="24" version="1.1" xml:space="preserve" xmlns="http://www.w3.org/2000/svg" xmlns:cc="http://creativecommons.org/ns#" xmlns:dc="http://purl.org/dc/elements/1.1/" xmlns:rdf="http://www.w3.org/1999/02/22-rdf-syntax-ns#"><path d="m12 4.9693c-3.894 0-7.048 3.154-7.048 7.048 0 3.894 3.154 7.048 7.048 7.048 3.894 0 7.048-3.154 7.048-7.048 0-3.894-3.154-7.048-7.048-7.048zm0 13.391c-3.5064 0-6.3432-2.8368-6.3432-6.3432 0-3.5064 2.8368-6.3432 6.3432-6.3432 3.5063 0 6.3432 2.8368 6.3432 6.3432 0 3.5064-2.8369 6.3432-6.3432 6.3432z"/><path d="m3.613 9.9205c0.19382 0.05286 0.38764-0.05286 0.4405-0.24668s-0.05286-0.38764-0.24668-0.4405-0.38764 0.05286-0.4405 0.24668 0.05286 0.38764 0.24668 0.4405z"/><path d="m8.4057 4.5112c0.19382 0 0.3524-0.1762 0.3524-0.37002 0-0.05286-0.01762-0.0881-0.03524-0.14096-0.0881-0.1762-0.29954-0.24668-0.47574-0.1762s-0.24668 0.29954-0.1762 0.47574c0.0881 0.14096 0.21144 0.21144 0.33478 0.21144z"/><path d="m3.4016 11.136c0.19382 0.0352 0.37002-0.1057 0.40526-0.2996 0.03524-0.1938-0.10572-0.37-0.29954-0.4052s-0.37002 0.1057-0.40526 0.2995c-0.01762 0.1938 0.10572 0.3701 0.29954 0.4053z"/><path d="m9.5686 4.0883c0.19382 0 0.3524-0.15858 0.3524-0.3524s-0.15858-0.3524-0.3524-0.3524c-0.03524 0-0.07048 0-0.10572 0.01762-0.19382 0.05286-0.29954 0.24668-0.22906 0.4405 0.03524 0.14096 0.1762 0.24668 0.33478 0.24668z"/><path d="m10.767 3.824c0.1938 0 0.3524-0.15858 0.3524-0.3524s-0.1586-0.3524-0.3524-0.3524c-0.1939 0-0.3524 0.15858-0.3524 0.3524v0.05286c0.0352 0.1762 0.1762 0.29954 0.3524 0.29954z"/><path d="m3.3664 12.37c0.19382 0 0.3524-0.1586 0.3524-0.3524s-0.15858-0.3524-0.3524-0.3524-0.3524 0.1586-0.3524 0.3524 0.15858 0.3524 0.3524 0.3524z"/><path d="m4.5469 7.6475c0.15858 0.10572 0.38764 0.05286 0.49336-0.10572s0.05286-0.38764-0.10572-0.49336-0.38764-0.05286-0.49336 0.10572c-0.10572 0.1762-0.05286 0.38764 0.10572 0.49336z"/><path d="m4.0007 8.7576c0.1762 0.07048 0.38764 0 0.47574-0.1762s0-0.38764-0.1762-0.47574-0.38764 0-0.47574 0.1762 0 0.38764 0.1762 0.47574z"/><path d="m6.3442 5.8503c0.0881 0 0.15858-0.03524 0.22906-0.0881 0.14096-0.12334 0.15858-0.3524 0.03524-0.49336s-0.3524-0.15858-0.49336-0.03524-0.15858 0.3524-0.03524 0.49336c0.07048 0.07048 0.15858 0.12334 0.2643 0.12334z"/><path d="m5.4808 6.7137c0.10572 0 0.19382-0.03524 0.2643-0.12334 0.12334-0.14096 0.10572-0.37002-0.03524-0.49336s-0.37002-0.10572-0.49336 0.03524-0.10572 0.37002 0.03524 0.49336c0.05286 0.05286 0.14096 0.0881 0.22906 0.0881z"/><path d="m7.3309 5.1102c0.19382 0 0.3524-0.15858 0.3524-0.37002 0-0.07048-0.01762-0.12334-0.05286-0.1762-0.10572-0.15858-0.31716-0.21144-0.49336-0.10572s-0.21144 0.31716-0.10572 0.49336c0.07048 0.0881 0.1762 0.15858 0.29954 0.15858z"/><path d="m18.52 6.7137c0.1938 0 0.3524-0.15858 0.3524-0.3524s-0.1586-0.3524-0.3524-0.3524c-0.0881 0-0.1586 0.03524-0.2291 0.0881-0.1409 0.12334-0.1586 0.3524-0.0352 0.49336 0.0704 0.0881 0.1762 0.12334 0.2643 0.12334z"/><path d="m19.26 7.7004c0.0705 0 0.1234-0.01762 0.1938-0.05286 0.1586-0.10572 0.2115-0.31716 0.1057-0.49336-0.1057-0.15858-0.3171-0.21144-0.4933-0.10572-0.1586 0.10572-0.2115 0.31716-0.1057 0.49336 0.0704 0.10572 0.1938 0.15858 0.2995 0.15858z"/><path d="m12 3.7359c0.1938 0 0.3524-0.15858 0.3524-0.3524s-0.1586-0.3524-0.3524-0.3524-0.3524 0.15858-0.3524 0.3524 0.1585 0.3524 0.3524 0.3524z"/><path d="m17.656 5.8503c0.1938 0 0.3524-0.15858 0.3524-0.3524s-0.1586-0.3524-0.3524-0.3524c-0.1057 0-0.1938 0.05286-0.2643 0.12334-0.1234 0.14096-0.1057 0.37002 0.0352 0.49336 0.0705 0.05286 0.141 0.0881 0.2291 0.0881z"/><path d="m3.5073 13.586c0.19382-0.0353 0.33478-0.2115 0.29954-0.4053s-0.21144-0.3348-0.40526-0.2995c-0.19382 0.0352-0.33478 0.2114-0.29954 0.4052s0.21144 0.3348 0.40526 0.2996z"/><path d="m20.493 10.449c-0.1938 0.0352-0.3348 0.2115-0.2995 0.4053 0.0176 0.1762 0.1762 0.2995 0.3524 0.2995 0.1938 0 0.3524-0.1586 0.3524-0.37v-0.0353c-0.0353-0.1938-0.2115-0.3347-0.4053-0.2995z"/><path d="m19.947 9.6914c0.0528 0.1762 0.2467 0.28192 0.4405 0.24668 0.1938-0.05286 0.2995-0.24668 0.2467-0.4405-0.0529-0.19382-0.2467-0.29954-0.4405-0.24668-0.1939 0.05286-0.2996 0.24668-0.2467 0.4405z"/><path d="m19.542 8.5814c0.0529 0.12334 0.1762 0.21144 0.3172 0.21144 0.0528 0 0.1057-0.01762 0.1409-0.03524 0.1762-0.0881 0.2467-0.28192 0.1762-0.47574-0.0881-0.1762-0.2819-0.24668-0.4757-0.1762-0.1762 0.0881-0.2467 0.29954-0.1586 0.47574z"/><path d="m13.181 3.824h0.0529c0.1938 0 0.3524-0.15858 0.3524-0.3524s-0.1586-0.3524-0.3524-0.3524c-0.1939 0-0.3524 0.15858-0.3524 0.3524 0 0.1762 0.1233 0.31716 0.2995 0.3524z"/><path d="m12 3.0311"/><path d="m15.436 4.4759c0.1762 0.07048 0.3876 0 0.4757-0.1762s0-0.38764-0.1762-0.47574-0.3876 0-0.4757 0.1762c-0.0705 0.19382 0 0.40526 0.1762 0.47574z"/><path d="m16.476 5.0574c0.1585 0.10572 0.3876 0.05286 0.4933-0.10572s0.0529-0.38764-0.1057-0.49336-0.3876-0.05286-0.4934 0.10572c-0.1057 0.15858-0.0528 0.38764 0.1058 0.49336z"/><path d="m14.344 4.0707c0.1938 0.05286 0.3877-0.05286 0.4405-0.24668 0.0529-0.19382-0.0528-0.38764-0.2467-0.4405-0.1938-0.05286-0.3876 0.05286-0.4405 0.24668-0.0528 0.19382 0.0529 0.38764 0.2467 0.4405z"/><path d="m14.326 19.964c-0.1938 0.0529-0.2995 0.2467-0.2467 0.4405 0.0529 0.1762 0.2467 0.2819 0.4405 0.2467 0.1938-0.0529 0.2996-0.2467 0.2291-0.4405-0.0353-0.1938-0.2291-0.2996-0.4229-0.2467z"/><path d="m4.0536 14.343c-0.05286-0.1938-0.24668-0.2995-0.4405-0.2467-0.19382 0.0529-0.29954 0.2467-0.24668 0.4405 0.05286 0.1762 0.24668 0.282 0.4405 0.2467 0.19382-0.0528 0.29954-0.2467 0.24668-0.4405z"/><path d="m19.453 16.387c-0.1586-0.1057-0.3876-0.0528-0.4933 0.1058-0.1057 0.1585-0.0529 0.3876 0.1057 0.4933s0.3876 0.0529 0.4933-0.1057c0.1058-0.1586 0.0529-0.3876-0.1057-0.4934z"/><path d="m18.255 17.444c-0.1234 0.1409-0.1057 0.37 0.0352 0.4933 0.141 0.1234 0.37 0.1057 0.4934-0.0352 0.1233-0.141 0.1057-0.37-0.0353-0.4934-0.1409-0.1233-0.37-0.1057-0.4933 0.0353z"/><path d="m16.476 18.977c-0.1586 0.1057-0.2115 0.3172-0.1058 0.4933 0.1058 0.1586 0.3172 0.2115 0.4934 0.1058 0.1586-0.1058 0.2114-0.3172 0.1057-0.4934-0.1057-0.1586-0.3348-0.2114-0.4933-0.1057z"/><path d="m15.436 19.559c-0.1762 0.0881-0.2467 0.2819-0.1762 0.4581 0.0881 0.1762 0.2819 0.2466 0.4581 0.1762 0.1762-0.0881 0.2467-0.282 0.1762-0.4581-0.0705-0.1939-0.2819-0.2644-0.4581-0.1762z"/><path d="m20 15.277c-0.1761-0.0881-0.3876 0-0.4581 0.1762-0.0881 0.1762 0 0.3876 0.1762 0.4581s0.3877 0 0.4582-0.1762c0.0881-0.1586 0-0.37-0.1763-0.4581z"/><path d="m20.599 12.898c-0.1938-0.0353-0.37 0.1057-0.4052 0.2995-0.0353 0.1939 0.1057 0.37 0.2995 0.4053 0.1938 0.0176 0.37-0.1057 0.4053-0.2996 0.0176-0.1938-0.1058-0.37-0.2996-0.4052z"/><path d="m20.634 11.665c-0.1939 0-0.3524 0.1586-0.3524 0.3524s0.1585 0.3524 0.3524 0.3524c0.1938 0 0.3524-0.1586 0.3524-0.3524s-0.1586-0.3524-0.3524-0.3524z"/><path d="m13.181 20.211c-0.1938 0.0352-0.3348 0.2114-0.2995 0.4053 0.0176 0.1761 0.1762 0.2995 0.3524 0.2995 0.1938 0 0.3524-0.1586 0.3524-0.3524v-0.0352c-0.0353-0.2115-0.2115-0.3348-0.4053-0.3172z"/><path d="m20.387 14.114c-0.1938-0.0529-0.3877 0.0528-0.4405 0.2467-0.0529 0.1938 0.0528 0.3876 0.2467 0.4405 0.1938 0.0528 0.3876-0.0529 0.4405-0.2467 0.0528-0.1939-0.0705-0.3877-0.2467-0.4405z"/><path d="m17.427 18.272c-0.1409 0.1233-0.1586 0.3524-0.0352 0.4934 0.1233 0.1409 0.3524 0.1585 0.4933 0.0352 0.141-0.1234 0.1586-0.3524 0.0353-0.4934-0.1234-0.1409-0.3524-0.1586-0.4934-0.0352z"/><path d="m6.0798 18.308c-0.12334 0.141-0.10572 0.37 0.03524 0.4934 0.14096 0.1233 0.37002 0.1057 0.49336-0.0352 0.12334-0.141 0.10572-0.3701-0.03524-0.4934-0.14096-0.1234-0.37002-0.1057-0.49336 0.0352z"/><path d="m5.2341 17.409c-0.14096 0.1234-0.15858 0.3524-0.03524 0.4934 0.12334 0.1409 0.3524 0.1586 0.49336 0.0352 0.14096-0.1233 0.15858-0.3524 0.03524-0.4933-0.12334-0.1586-0.33478-0.1763-0.49336-0.0353z"/><path d="m4.4588 15.453c-0.0881-0.1762-0.28192-0.2467-0.45812-0.1762s-0.24668 0.2819-0.1762 0.4581c0.0881 0.1762 0.28192 0.2467 0.45812 0.1762s0.2643-0.2819 0.1762-0.4581z"/><path d="m7.5247 18.977c-0.15858-0.1057-0.38764-0.0529-0.49336 0.1057s-0.05286 0.3876 0.10572 0.4934c0.15858 0.1057 0.37002 0.0528 0.49336-0.1058 0.10572-0.1585 0.05286-0.3876-0.10572-0.4933z"/><path d="m4.5469 16.387c-0.15858 0.1058-0.21144 0.3172-0.10572 0.4934 0.10572 0.1586 0.31716 0.2115 0.49336 0.1057 0.15858-0.1057 0.21144-0.3171 0.10572-0.4933-0.10572-0.1586-0.33478-0.2115-0.49336-0.1058z"/><path d="m8.5643 19.559c-0.1762-0.0882-0.38764 0-0.47574 0.1762-0.0881 0.1761 0 0.3876 0.1762 0.4757 0.1762 0.0705 0.38764 0 0.47574-0.1762 0.07048-0.1938 0-0.4053-0.1762-0.4757z"/><path d="m10.82 20.211c-0.1938-0.0352-0.37 0.1057-0.4052 0.2995-0.0353 0.1939 0.1057 0.3701 0.2995 0.4053 0.1938 0.0176 0.37-0.1057 0.4053-0.2995 0.0352-0.1939-0.1058-0.3701-0.2996-0.4053z"/><path d="m12 20.299c-0.1939 0-0.3524 0.1586-0.3524 0.3524s0.1585 0.3524 0.3524 0.3524c0.1938 0 0.3524-0.1586 0.3524-0.3524s-0.1586-0.3524-0.3524-0.3524z"/><path d="m9.6743 19.964c-0.19382-0.0529-0.38764 0.0529-0.4405 0.2467s0.05286 0.3876 0.24668 0.4405c0.19382 0.0528 0.38764-0.0529 0.4405-0.2467 0.03524-0.1938-0.07048-0.3876-0.24668-0.4405z"/><path d="m22.766 13.198c0.229-0.3348 0.511-0.74 0.511-1.1805 0-0.4581-0.2643-0.8458-0.511-1.1806-0.1586-0.1938-0.2819-0.4228-0.37-0.6695-0.0176-0.26431 0.0176-0.52861 0.1233-0.79291 0.1057-0.42288 0.2291-0.84576 0.0705-1.2686s-0.5286-0.68718-0.8634-0.93386c-0.229-0.12334-0.4229-0.29954-0.5815-0.51098-0.1057-0.24668-0.1585-0.51098-0.1585-0.77528-0.0353-0.40526-0.0705-0.881-0.3524-1.2158-0.282-0.33478-0.7401-0.45812-1.1277-0.58146-0.2467-0.05286-0.4934-0.14096-0.7224-0.28192-0.1762-0.19382-0.3172-0.42288-0.4053-0.66956-0.1762-0.37002-0.37-0.81052-0.7576-1.022-0.3877-0.22906-0.8458-0.1762-1.2511-0.14096-0.2643 0.03524-0.5109 0.03524-0.7753-0.01762-0.229-0.12334-0.4228-0.28192-0.599-0.47574-0.2996-0.29954-0.6167-0.63432-1.0572-0.7048-0.4229-0.07048-0.8282 0.10572-1.2158 0.29954-0.2115 0.10572-0.4581 0.19382-0.7224 0.22906-0.2643-0.03524-0.511-0.12334-0.7401-0.24668-0.3876-0.1762-0.7929-0.37002-1.2158-0.29954-0.44045 0.07048-0.77523 0.42288-1.0572 0.7048-0.15858 0.19382-0.37002 0.3524-0.59908 0.47574-0.2643 0.07048-0.5286 0.07048-0.77528 0.03524-0.40526-0.03524-0.86338-0.07048-1.251 0.14096-0.38764 0.22906-0.58146 0.65194-0.75766 1.022-0.0881 0.24668-0.22906 0.47574-0.40526 0.66956-0.21144 0.14096-0.45812 0.24668-0.72242 0.28192-0.38764 0.10572-0.84576 0.22906-1.1277 0.58146-0.28192 0.33478-0.31716 0.81052-0.3524 1.2158 0 0.2643-0.05286 0.5286-0.15858 0.77528-0.15858 0.21144-0.3524 0.38764-0.58146 0.51098-0.33478 0.24668-0.72242 0.51098-0.86338 0.93386s-0.03524 0.84576 0.0881 1.2686c0.0881 0.24668 0.12334 0.51098 0.12334 0.79291-0.07048 0.2467-0.19382 0.4757-0.37002 0.6695-0.24668 0.3348-0.51098 0.7225-0.51098 1.1806s0.2643 0.8457 0.51098 1.1805c0.15858 0.1938 0.28192 0.4229 0.37002 0.6696 0.01762 0.2643-0.01762 0.5286-0.12334 0.7929-0.10572 0.4229-0.22906 0.8457-0.07048 1.2686s0.5286 0.6872 0.86338 0.9339c0.22906 0.1233 0.42288 0.2995 0.58146 0.511 0.10572 0.2467 0.15858 0.511 0.15858 0.7753 0.03524 0.4052 0.07048 0.881 0.3524 1.2157 0.28192 0.3348 0.74004 0.4582 1.1277 0.5639 0.24668 0.0528 0.49336 0.1409 0.72242 0.2819 0.1762 0.1938 0.31716 0.4229 0.40526 0.6696 0.1762 0.37 0.37002 0.8105 0.75766 1.0219 0.38764 0.2291 0.84576 0.1762 1.251 0.141 0.2643-0.0353 0.51098-0.0353 0.77528 0.0176 0.22906 0.1233 0.42288 0.2819 0.59908 0.4757 0.29954 0.2996 0.6167 0.6344 1.0572 0.7048 0.4228 0.0705 0.8281-0.1057 1.2157-0.2995 0.2291-0.1234 0.4758-0.2114 0.7401-0.2467 0.2643 0.0353 0.511 0.1233 0.74 0.2467 0.3524 0.1762 0.7929 0.37 1.2158 0.2995 0.4405-0.0704 0.7753-0.4229 1.0572-0.7048 0.1586-0.1938 0.37-0.3524 0.5991-0.4757 0.2467-0.0529 0.511-0.0705 0.7753-0.0176 0.4052 0.0352 0.8634 0.0705 1.251-0.141 0.3876-0.229 0.5814-0.6519 0.7576-1.0219 0.0881-0.2467 0.2291-0.4758 0.4053-0.6696 0.2114-0.141 0.4581-0.2467 0.7224-0.2819 0.3877-0.1057 0.8458-0.2291 1.1277-0.5815 0.2819-0.3348 0.3172-0.8105 0.3524-1.2158 0-0.2643 0.0529-0.5286 0.1586-0.7752 0.1586-0.2115 0.3524-0.3877 0.5814-0.511 0.3348-0.2467 0.7225-0.511 0.8634-0.9339 0.141-0.4052 0.0353-0.8457-0.0705-1.2686-0.0881-0.2467-0.1233-0.511-0.1233-0.7929 0.0529-0.2115 0.1762-0.4405 0.3348-0.652zm-0.5815-0.3876c-0.229 0.2819-0.3876 0.5991-0.4757 0.9515-0.0353 0.37 0 0.74 0.1233 1.0924 0.0881 0.3348 0.1762 0.6343 0.0881 0.8458-0.0705 0.2114-0.3348 0.4052-0.6167 0.5991-0.3171 0.1938-0.5814 0.4405-0.7753 0.74-0.1585 0.3348-0.2466 0.6872-0.2466 1.0572-0.0353 0.3172-0.0529 0.6696-0.1939 0.8281-0.1409 0.1762-0.4405 0.2467-0.7752 0.3348-0.3524 0.0705-0.6872 0.2115-0.9868 0.4229-0.2643 0.2643-0.4581 0.5638-0.5814 0.9162-0.141 0.2996-0.2819 0.5991-0.4758 0.7225-0.1938 0.1057-0.4933 0.0881-0.8281 0.0528-0.3524-0.0528-0.7224-0.0352-1.0748 0.0705-0.3348 0.1586-0.6167 0.37-0.8458 0.6519-0.229 0.2291-0.4581 0.4758-0.6872 0.511-0.2114 0.0353-0.4933-0.1057-0.7929-0.2467-0.3171-0.1762-0.6695-0.2995-1.0395-0.3171-0.3701 0.0352-0.7225 0.1409-1.0396 0.3171-0.2996 0.141-0.5815 0.282-0.7929 0.2467-0.22907-0.0352-0.45813-0.2819-0.68719-0.511-0.22906-0.2819-0.5286-0.4933-0.84576-0.6519-0.3524-0.1057-0.72242-0.1233-1.0748-0.0705-0.33478 0.0353-0.65194 0.0529-0.82814-0.0528-0.19382-0.1058-0.33478-0.4229-0.47574-0.7225-0.12334-0.3347-0.33478-0.6519-0.58146-0.9162-0.29954-0.2114-0.63432-0.3524-0.98672-0.4229-0.31716-0.0881-0.63432-0.1762-0.77528-0.3348-0.14096-0.1762-0.1762-0.5109-0.19382-0.8281 0-0.37-0.0881-0.7224-0.24668-1.0572-0.19382-0.2995-0.47574-0.5462-0.77528-0.74-0.28192-0.1939-0.54622-0.3877-0.6167-0.5991-0.07048-0.2115 0-0.511 0.0881-0.8458 0.12334-0.3524 0.15858-0.7224 0.12334-1.0924-0.0881-0.3524-0.24668-0.6696-0.47574-0.9515-0.21144-0.2819-0.38764-0.5639-0.38764-0.7929 0-0.2291 0.1762-0.4934 0.38764-0.7929 0.22906-0.2819 0.38764-0.5991 0.47574-0.9515 0.03524-0.37001 0-0.74003-0.12334-1.0924-0.0881-0.33478-0.1762-0.63432-0.0881-0.84576 0.07048-0.21144 0.33478-0.40526 0.6167-0.59908 0.31716-0.19382 0.58146-0.4405 0.77528-0.74004 0.15858-0.33478 0.24668-0.68718 0.24668-1.0572 0.03524-0.31716 0.05286-0.66956 0.19382-0.82814 0.14096-0.1762 0.4405-0.24668 0.77528-0.33478 0.3524-0.07048 0.68718-0.21144 0.98672-0.42288 0.2643-0.2643 0.45812-0.56384 0.58146-0.91624 0.14096-0.29954 0.28192-0.59908 0.47574-0.72242 0.19382-0.10572 0.49336-0.0881 0.82814-0.05286 0.3524 0.05286 0.72242 0.03524 1.0748-0.07048 0.33478-0.15858 0.6167-0.37002 0.84576-0.65194 0.22906-0.21144 0.45812-0.4405 0.68719-0.49336 0.2114-0.03524 0.4933 0.0881 0.7929 0.24668 0.3171 0.1762 0.6695 0.29954 1.0396 0.31716 0.37-0.03524 0.7224-0.14096 1.0395-0.31716 0.2996-0.14096 0.5815-0.28192 0.7929-0.24668 0.2291 0.03524 0.4582 0.28192 0.6872 0.51098 0.2291 0.28192 0.5286 0.49336 0.8458 0.65194 0.3524 0.10572 0.7224 0.12334 1.0748 0.07048 0.3348-0.03524 0.6519-0.05286 0.8281 0.05286 0.1939 0.10572 0.3348 0.42288 0.4758 0.72242 0.1233 0.33478 0.3348 0.65194 0.5814 0.91624 0.2996 0.21144 0.6344 0.3524 0.9868 0.42288 0.3171 0.0881 0.6343 0.1762 0.7752 0.33478 0.141 0.1762 0.1762 0.51098 0.1939 0.82814 0 0.37002 0.0881 0.72242 0.2466 1.0572 0.1939 0.29954 0.4758 0.54622 0.7753 0.74004 0.2819 0.19382 0.5462 0.38764 0.6167 0.59908s0 0.51098-0.0881 0.84576c-0.1233 0.3524-0.1586 0.72242-0.1233 1.0924 0.0881 0.3524 0.2467 0.6696 0.4757 0.9515 0.1938 0.2819 0.3877 0.5462 0.3877 0.7929 0 0.2114-0.1762 0.4934-0.3877 0.7753z"/></svg>
