<?xml version="1.0" encoding="UTF-8"?>
<svg width="24" height="24" data-name="Layer 1" version="1.1" xmlns="http://www.w3.org/2000/svg" xmlns:cc="http://creativecommons.org/ns#" xmlns:dc="http://purl.org/dc/elements/1.1/" xmlns:rdf="http://www.w3.org/1999/02/22-rdf-syntax-ns#">
 <title>Miscellaneous 170 Expended</title>
 <g stroke-width=".99">
  <path d="m11.033 10.91c-0.0198-0.85467-0.4657-1.6429-1.188-2.1001-0.65263-0.42761-1.2082-0.98742-1.631-1.6432-0.45045-0.69759-0.69235-1.5093-0.69723-2.3397v-0.56237c-0.23426 0-0.46918 0.0053-0.70324-0.00445v0.56682c0.00485 0.96419 0.28492 1.9069 0.80729 2.7174 0.47509 0.73844 1.0999 1.3689 1.8341 1.8506 0.52953 0.32409 0.85884 0.89438 0.87488 1.515v1.281c-0.01465 0.55123-0.30749 1.0576-0.77796 1.3452-0.79583 0.52391-1.4624 1.2216-1.9497 2.0403l-0.090308 0.15484c-0.45307 0.76952-0.69402 1.6455-0.69827 2.5386v1.4703c0.029383-0.0012 0.058242-0.0044 0.087912-0.0044h0.61532v-1.4659c0.00422-0.76854 0.2121-1.5223 0.60245-2.1843l0.090308-0.15474c0.43323-0.72636 1.0255-1.345 1.7323-1.8094 0.66371-0.42045 1.0732-1.1449 1.0911-1.9304z"/>
  <path d="m14.545 9.3948c0.73418-0.48179 1.3591-1.1123 1.8343-1.8508 0.52232-0.81041 0.8023-1.7531 0.80715-2.7172v-0.56682c0 0.010732-0.7033 0.00136-0.7033 0.00445v0.56237c-0.0049 0.83045-0.24681 1.6422-0.69736 2.3399-0.42263 0.65578-0.97822 1.2155-1.6308 1.6431-0.7223 0.45725-1.1682 1.2454-1.188 2.1001v1.281c0.01792 0.78547 0.42738 1.5099 1.0911 1.9304 0.70686 0.46441 1.2991 1.0831 1.7324 1.8093l0.09029 0.15494c0.39036 0.66201 0.59826 1.4157 0.60242 2.1842v1.466h0.61538c0.0296 0 0.05851 0.0032 0.08791 0.0044v-1.4704c-0.0043-0.89308-0.24522-1.7689-0.69825-2.5386l-0.09039-0.15494c-0.48728-0.81873-1.1538-1.5163-1.9497-2.0402-0.47045-0.2876-0.76329-0.79398-0.77784-1.3452v-1.281c0.01594-0.62063 0.34531-1.1909 0.87476-1.515z"/>
  <path d="m6.9015 3.5612h10.197c0.50242 0 0.96674-0.26807 1.218-0.70324s0.25126-0.97131 0-1.4065c-0.25126-0.43516-0.71557-0.70324-1.218-0.70324h-10.197c-0.50248 0-0.9668 0.26807-1.218 0.70324-0.25124 0.43516-0.25124 0.97131 0 1.4065s0.71556 0.70324 1.218 0.70324zm1.0549-0.70324v-1.4065h1.0549v1.4065zm1.7581 0v-1.4065h1.0548v1.4065zm1.7581 0v-1.4065h1.0548v1.4065zm1.758 0v-1.4065h1.0548v1.4065zm1.7581 0v-1.4065h1.0548v1.4065zm2.8129-0.70324c-3.96e-4 0.38821-0.31502 0.70279-0.7032 0.70324h-0.35165v-1.4065h0.35165c0.38818 4.455e-4 0.7028 0.31504 0.7032 0.70324zm-10.9-0.70324h0.35162v1.4065h-0.35162c-0.25124 0-0.48341-0.13404-0.60903-0.35162s-0.12562-0.48565 0-0.70324 0.35779-0.35162 0.60903-0.35162z"/>
  <path d="m17.098 20.439h-10.197c-0.50248 0-0.9668 0.26809-1.218 0.7032-0.25124 0.4352-0.25124 0.97139 0 1.4065 0.25124 0.4352 0.71556 0.7033 1.218 0.7033h10.197c0.50242 0 0.96674-0.26809 1.218-0.7033 0.25126-0.4351 0.25126-0.97129 0-1.4065-0.25126-0.4351-0.71557-0.7032-1.218-0.7032zm-7.384 0.7032h1.0548v1.4065h-1.0548zm-0.70324 1.4065h-1.0549v-1.4065h1.0549zm2.4614-1.4065h1.0548v1.4065h-1.0548zm1.758 0h1.0548v1.4065h-1.0548zm1.7581 0h1.0548v1.4065h-1.0548zm-8.7905 0.7033c4.356e-4 -0.38828 0.31503-0.7028 0.70324-0.7033h0.35162v1.4065h-0.35162c-0.38821-3.96e-4 -0.7028-0.31502-0.70324-0.7032zm10.9 0.7032h-0.35165v-1.4065h0.35165c0.25126 0 0.48342 0.13405 0.60895 0.35165 0.12563 0.2176 0.12563 0.48569 0 0.7032-0.12553 0.2176-0.35769 0.35165-0.60895 0.35165z"/>
  <path d="m11.752 5.423c-0.10108 0.1004-0.13157 0.25183-0.07722 0.38351 0.05425 0.13168 0.18266 0.2176 0.32512 0.2176 0.14236 0 0.27076-0.085922 0.32512-0.2176 0.05425-0.13168 0.02376-0.28311-0.07732-0.38351-0.1389-0.13186-0.3568-0.13186-0.49569 0z"/>
  <path d="m10.346 5.423c-0.10098 0.1004-0.13157 0.25183-0.07722 0.38351 0.05425 0.13168 0.18266 0.2176 0.32512 0.2176s0.27076-0.085922 0.32512-0.2176c0.05425-0.13168 0.02376-0.28311-0.07722-0.38351-0.139-0.13186-0.3568-0.13186-0.49579 0z"/>
  <path d="m9.1185 5.3263c-0.022216 0.00454-0.043986 0.010999-0.065073 0.019315-0.021592 0.00903-0.042214 0.020216-0.061548 0.033393-0.019751 0.012573-0.038036 0.027314-0.054509 0.043956-0.13587 0.13732-0.13587 0.35843 0 0.49575 0.016474 0.016632 0.034759 0.031383 0.054509 0.043946 0.019315 0.013217 0.039937 0.024413 0.061548 0.033403 0.021097 0.00831 0.042867 0.014791 0.065073 0.019394 0.022522 0.00494 0.04553 0.00731 0.068587 0.00705 0.14226 4.356e-4 0.27069-0.08516 0.32504-0.21663 0.054341-0.13147 0.023839-0.28276-0.0772-0.3829-0.082655-0.083152-0.20143-0.11944-0.31642-0.096675z"/>
  <path d="m13.602 5.379c-0.01931-0.013197-0.04-0.024384-0.06158-0.033393-0.02109-0.00833-0.04287-0.014791-0.06504-0.019315-0.11504-0.02276-0.23374 0.013523-0.3164 0.096664-0.06663 0.065271-0.10405 0.15468-0.10375 0.24792-2.97e-4 0.023027 0.0021 0.046015 7e-3 0.068508 0.0046 0.0228 0.01099 0.045174 0.01931 0.066874 0.0094 0.02083 0.02059 0.040818 0.03346 0.059747 0.01208 0.019513 0.02693 0.037254 0.04396 0.052708 0.06524 0.066637 0.15464 0.10407 0.2479 0.10378 0.02307 2.574e-4 0.04603-0.00211 0.06851-0.00703 0.02218-0.00459 0.04396-0.011088 0.06504-0.019404 0.02168-0.00897 0.04227-0.020156 0.06158-0.033393 0.0197-0.012573 0.03802-0.027314 0.05445-0.043956 0.13603-0.13727 0.13603-0.35847 0-0.49574-0.01643-0.016642-0.03475-0.031393-0.05445-0.043966z"/>
  <path d="m14.678 5.9961c0.02178 0.00809 0.04415 0.014573 0.06682 0.019404 0.02247 0.00493 0.04554 0.0073 0.06861 0.00704 0.09326 9.9e-5 0.18275-0.036917 0.24869-0.10288 0.06593-0.065964 0.10296-0.15545 0.10286-0.24874 2.97e-4 -0.023057-0.0021-0.046065-7e-3 -0.068587-4e-3 -0.022909-0.01049-0.045302-0.0194-0.066785-0.0093-0.020879-0.02049-0.040897-0.03336-0.059836-0.01208-0.019057-0.02623-0.036739-0.04217-0.052708-0.08346-0.082962-0.20265-0.11916-0.31819-0.096664-0.02267 0.00477-0.04504 0.011227-0.06682 0.019315-0.02079 0.00941-0.04089 0.020582-0.0598 0.033393-0.0195 0.012147-0.03722 0.026938-0.05267 0.043956-0.06643 0.065419-0.10375 0.1547-0.10375 0.24788 0 0.093169 0.03732 0.18246 0.10375 0.24788 0.01544 0.017008 0.03317 0.031809 0.05267 0.043946 0.01891 0.01285 0.03891 0.024027 0.0598 0.033393z"/>
  <path d="m11.675 19.519c0.0094 0.02089 0.02049 0.04089 0.03336 0.0598 0.01257 0.0197 0.02732 0.03802 0.04396 0.05445 0.01594 0.01594 0.03366 0.0301 0.05267 0.04217 0.01931 0.01327 0.04 0.02445 0.06158 0.03336 0.02109 0.0083 0.04287 0.01485 0.06504 0.0194 0.04524 0.0094 0.09187 0.0094 0.13712 0 0.02277-0.0048 0.04504-0.01129 0.06692-0.0194 0.02079-0.0093 0.04079-0.02049 0.0597-0.03336 0.0399-0.02346 0.07326-0.05673 0.09662-0.09662 0.01287-0.01891 0.02406-0.03891 0.03346-0.0598 8e-3 -0.02178 0.01455-0.04415 0.0194-0.06683 0.0049-0.02247 0.0072-0.04554 7e-3 -0.06851-1.98e-4 -0.09336-0.03683-0.18295-0.10197-0.24978-0.01703-0.01554-0.03524-0.0296-0.05455-0.04208-0.01851-0.01356-0.03851-0.02475-0.0597-0.03346-0.02158-0.0088-0.04396-0.01535-0.06692-0.01931-0.04524-0.0088-0.09177-0.0088-0.13712 0-0.02237 0.0038-0.04425 0.0102-0.06504 0.01931-0.02198 0.0083-0.04267 0.0196-0.06158 0.03346-0.01901 0.01208-0.03673 0.02614-0.05267 0.04208-0.06633 0.06623-0.10365 0.15602-0.10375 0.24978-2.97e-4 0.02297 0.0021 0.04603 7e-3 0.06851 4e-3 0.02287 0.01049 0.04534 0.0194 0.06683z"/>
  <path d="m10.268 19.519c0.0087 0.02119 0.0199 0.04128 0.03336 0.0598 0.01257 0.0197 0.02732 0.03802 0.04396 0.05445 0.06593 0.06544 0.15503 0.10217 0.2479 0.10207 0.02307 1.98e-4 0.04603-0.0022 0.06851-0.0071 0.02277-0.0046 0.04514-0.01099 0.06692-0.0193 0.02079-0.0094 0.04079-0.02059 0.0597-0.03346 0.01911-0.01208 0.03673-0.02623 0.05277-0.04217 0.01663-0.01643 0.03138-0.03475 0.04396-0.05445 0.01346-0.01851 0.02465-0.03861 0.03336-0.0598 0.0089-0.02148 0.01544-0.04386 0.0194-0.06683 0.0049-0.02247 0.0073-0.04554 7e-3 -0.06851 0-0.09375-0.03742-0.18364-0.10375-0.24978-0.01604-0.01594-0.03366-0.03-0.05277-0.04208-0.01851-0.01356-0.03851-0.02475-0.0597-0.03346-0.02148-0.0091-0.04396-0.01554-0.06692-0.01931-0.10326-0.02079-0.21038 0.0058-0.29175 0.07267-0.08148 0.06682-0.1286 0.16662-0.1283 0.27195-2.97e-4 0.02297 2e-3 0.04603 7e-3 0.06851 4e-3 0.02287 0.0104 0.04534 0.01931 0.06683z"/>
  <path d="m9.3224 19.059c-0.021513-0.0088-0.043936-0.01535-0.066875-0.01931-0.10324-0.02079-0.21037 0.0058-0.29179 0.07267-0.081428 0.06682-0.12854 0.16662-0.12832 0.27195-2.97e-4 0.02297 0.00206 0.04603 0.00703 0.06851 0.00477 0.02267 0.011227 0.04505 0.019315 0.06683 0.0094 0.02089 0.020582 0.04089 0.033393 0.0598 0.012573 0.0197 0.027314 0.03802 0.043956 0.05445 0.065904 0.06544 0.15505 0.10217 0.24793 0.10207 0.023027 1.98e-4 0.046005-0.0022 0.068508-0.0071 0.02273-0.0048 0.045075-0.01129 0.066875-0.0193 0.020849-0.0094 0.040838-0.02059 0.059746-0.03346 0.019058-0.01208 0.036729-0.02623 0.052708-0.04217 0.016632-0.01643 0.031373-0.03475 0.043946-0.05445 0.01285-0.01891 0.024027-0.03891 0.033393-0.0598 0.0089-0.02148 0.015414-0.04386 0.019404-0.06683 0.00493-0.02247 0.0073-0.04554 0.00704-0.06851-3.96e-5 -0.09375-0.037382-0.18364-0.10378-0.24978-0.015979-0.01594-0.03365-0.03-0.052708-0.04208-0.018513-0.01356-0.03857-0.02475-0.059756-0.03346z"/>
  <path d="m13.081 19.519c0.0094 0.02089 0.02059 0.04089 0.03346 0.0598 0.02346 0.0399 0.05673 0.07316 0.09662 0.09662 0.01891 0.01287 0.03901 0.02406 0.0598 0.03336 0.02178 0.0081 0.04415 0.01465 0.06682 0.0194 0.04524 0.0094 0.09187 0.0094 0.13712 0 0.02218-0.0046 0.04396-0.01109 0.06504-0.0194 0.02158-0.0089 0.04227-0.0201 0.06158-0.03336 0.01901-0.01208 0.03673-0.02623 0.05267-0.04217 0.01663-0.01643 0.03138-0.03475 0.04396-0.05445 0.01287-0.01891 0.02406-0.03891 0.03346-0.0598 0.0088-0.02148 0.01534-0.04396 0.01931-0.06683 0.0049-0.02247 0.0073-0.04554 0.0071-0.06851-9.9e-5 -0.09375-0.03742-0.18364-0.10385-0.24978-0.01594-0.01594-0.03366-0.03-0.05267-0.04208-0.01891-0.01396-0.0396-0.02515-0.06158-0.03346-0.02079-0.0091-0.04267-0.01554-0.06504-0.01931-0.04524-0.0088-0.09187-0.0088-0.13712 0-0.02287 4e-3 -0.04534 0.01049-0.06682 0.01931-0.02119 0.0087-0.04128 0.0199-0.0598 0.03346-0.0193 0.01247-0.03752 0.02653-0.05455 0.04208-0.06504 0.06683-0.10167 0.15642-0.10187 0.24978-2.97e-4 0.02297 0.0021 0.04603 7e-3 0.06851 0.0048 0.02267 0.01129 0.04505 0.01931 0.06683z"/>
  <path d="m14.488 19.519c0.0094 0.02089 0.02059 0.04089 0.03346 0.0598 0.01257 0.0197 0.02722 0.03802 0.04386 0.05445 0.06593 0.06544 0.15513 0.10217 0.248 0.10207 0.02297 1.98e-4 0.04594-0.0022 0.06851-0.0071 0.02267-0.0048 0.04504-0.01129 0.06682-0.0193 0.02089-0.0094 0.04089-0.02059 0.0598-0.03346 0.01901-0.01208 0.03673-0.02623 0.05267-0.04217 0.01663-0.01643 0.03138-0.03475 0.04396-0.05445 0.01346-0.01851 0.02465-0.03861 0.03336-0.0598 0.0089-0.02148 0.01544-0.04386 0.0194-0.06683 5e-3 -0.02247 0.0073-0.04554 7e-3 -0.06851 0-0.09375-0.03732-0.18364-0.10375-0.24978-0.01594-0.01594-0.03366-0.03-0.05267-0.04208-0.01851-0.01356-0.03861-0.02475-0.0598-0.03346-0.02148-0.0088-0.04396-0.01535-0.06682-0.01931-0.11474-0.02247-0.23305 0.01297-0.3164 0.09484-0.01673 0.01653-0.03138 0.03475-0.04396 0.05455-0.01327 0.0193-0.02445 0.04-0.03346 0.06158-0.0083 0.02109-0.01475 0.04287-0.0193 0.06504-0.0094 0.04524-0.0094 0.09187 0 0.13712 0.0048 0.02267 0.01119 0.04505 0.0193 0.06683z"/>
  <path d="m11.297 18.505c0.09346 8.91e-4 0.18345-0.03584 0.24958-0.10207 0.06613-0.06613 0.10296-0.15602 0.10197-0.24958-1.98e-4 -0.09286-0.03683-0.18186-0.10197-0.2479-0.01643-0.01663-0.03475-0.03138-0.05445-0.04396-0.01851-0.01356-0.03861-0.02475-0.0598-0.03346-0.02178-8e-3 -0.04415-0.01455-0.06682-0.0193-0.04534-0.0088-0.09187-0.0088-0.13712 0-0.02228 0.0046-0.04396 0.01099-0.06504 0.0193-0.02198 0.0083-0.04267 0.0196-0.06158 0.03346-0.03782 0.02604-0.07059 0.05881-0.09672 0.09662-0.01376 0.01891-0.02505 0.0396-0.03336 0.06158-0.0091 0.02079-0.01554 0.04267-0.0193 0.06504-5e-3 0.02247-0.0073 0.04554-7e-3 0.06861-9.9e-5 0.09326 0.03683 0.18275 0.10286 0.24879 0.06593 0.06593 0.15543 0.10296 0.24879 0.10286z"/>
  <path d="m10.216 18.02c-9e-3 -0.02168-0.0202-0.04227-0.03346-0.06158-0.02614-0.03782-0.05881-0.07049-0.09662-0.09662-0.01851-0.01356-0.03861-0.02475-0.0598-0.03346-0.02175-8e-3 -0.044104-0.01455-0.066845-0.0193-0.045263-0.0088-0.091822-0.0088-0.1371 0-0.022206 0.0046-0.043976 0.01099-0.065063 0.0193-0.021929 0.0083-0.042639 0.0196-0.061558 0.03346-0.037788 0.02604-0.070538 0.05881-0.096654 0.09662-0.01386 0.01891-0.025087 0.0396-0.033393 0.06158-0.0091 0.02079-0.015583 0.04267-0.019315 0.06504-0.00498 0.02247-0.00734 0.04554-0.00704 0.06861 0 0.12563 0.067023 0.24166 0.17581 0.30452 0.10879 0.06277 0.24283 0.06277 0.35164 0 0.1088-0.06286 0.17582-0.17889 0.17582-0.30452 1.98e-4 -0.02307-0.0022-0.04604-7e-3 -0.06861-0.0047-0.02218-0.01119-0.04396-0.0194-0.06504z"/>
  <path d="m12.703 18.505c0.09346 8.91e-4 0.18345-0.03584 0.24958-0.10207 0.06613-0.06613 0.10286-0.15602 0.10197-0.24958-1.98e-4 -0.09286-0.03683-0.18186-0.10197-0.2479-0.01643-0.01663-0.03475-0.03138-0.05455-0.04396-0.01841-0.01356-0.03851-0.02475-0.0597-0.03346-0.02178-8e-3 -0.04415-0.01455-0.06692-0.0193-0.04524-0.0088-0.09177-0.0088-0.13702 0-0.02228 0.0046-0.04406 0.01099-0.06514 0.0193-0.02188 0.0083-0.04257 0.0196-0.06148 0.03346-0.0198 0.01257-0.03811 0.02732-0.05455 0.04396-0.06534 0.06593-0.10197 0.15503-0.10187 0.2479-9.9e-4 0.09355 0.03574 0.18355 0.10187 0.24968 0.06623 0.06613 0.15622 0.10286 0.24978 0.10197z"/>
  <path d="m14.435 18.02c-0.0083-0.02198-0.0195-0.04267-0.03336-0.06158-0.02614-0.03782-0.0589-0.07049-0.09672-0.09662-0.01891-0.01386-0.0396-0.02515-0.06148-0.03346-0.02109-0.0083-0.04287-0.01475-0.06514-0.0193-0.04524-0.0088-0.09177-0.0088-0.13712 0-0.02218 0.0046-0.04396 0.01099-0.06504 0.0193-0.02188 0.0083-0.04257 0.0196-0.06158 0.03346-0.0197 0.01257-0.03802 0.02732-0.05445 0.04396-0.06544 0.06593-0.10207 0.15503-0.10187 0.2479-9.9e-4 0.09355 0.03574 0.18355 0.10187 0.24968 0.06613 0.06613 0.15612 0.10286 0.24968 0.10197 0.09336 9.9e-5 0.18285-0.03693 0.24879-0.10296 0.06593-0.06593 0.10296-0.15543 0.10286-0.24869 2.97e-4 -0.02307-0.0021-0.04604-7e-3 -0.06861-0.0038-0.02237-0.0103-0.04425-0.0194-0.06504z"/>
  <path d="m12.345 16.854c-0.0047-0.02218-0.01109-0.04396-0.0194-0.06504-9e-3 -0.02158-0.0202-0.04227-0.03336-0.06158-0.02614-0.03782-0.05891-0.07049-0.09672-0.09662-0.01891-0.01287-0.03891-0.02406-0.0597-0.03346-0.02178-8e-3 -0.04415-0.01455-0.06692-0.0193-0.11504-0.02277-0.23374 0.01356-0.3164 0.09672-0.01703 0.01544-0.03178 0.03317-0.04396 0.05267-0.01317 0.0193-0.02435 0.04-0.03336 0.06158-0.0083 0.02109-0.01485 0.04287-0.0194 0.06504-0.0093 0.04524-0.0093 0.09187 0 0.13712 0.0049 0.02277 0.01129 0.04504 0.0194 0.06682 0.0094 0.02089 0.02049 0.04089 0.03336 0.0598 0.01218 0.0195 0.02693 0.03722 0.04396 0.05267 0.06524 0.06663 0.15464 0.10415 0.2479 0.10385 0.02307 1.98e-4 0.04603-0.0022 0.06851-7e-3 0.02277-0.0049 0.04504-0.01139 0.06692-0.0194 0.02079-0.0094 0.04079-0.02059 0.0597-0.03346 0.03782-0.02614 0.07059-0.05881 0.09662-0.09662 0.01287-0.01891 0.02406-0.03891 0.03346-0.0598 8e-3 -0.02178 0.01455-0.04406 0.0194-0.06682 0.0093-0.04524 0.0093-0.09187 0-0.13712z"/>
  <path d="m13.784 7.2127c0.0094 0.02083 0.02059 0.040828 0.03336 0.059747 0.01257 0.01975 0.02732 0.038036 0.04396 0.054509 0.10078 0.10014 0.25196 0.12981 0.38303 0.0752 0.13118-0.054608 0.21661-0.18276 0.21651-0.32483 2.97e-4 -0.093258-0.03712-0.18267-0.10375-0.24792-0.139-0.13186-0.3568-0.13186-0.49579 0-0.01703 0.015454-0.03178 0.033185-0.04396 0.052708-0.01277 0.018949-0.02396 0.038966-0.03336 0.059836-0.0081 0.02174-0.01455 0.044065-0.01931 0.066785-0.0094 0.045213-0.0094 0.091872 0 0.1371 0.0045 0.0228 0.01099 0.045164 0.01931 0.066865z"/>
  <path d="m12.454 6.8294c-0.06534 0.065934-0.10197 0.15506-0.10187 0.24792-9.9e-4 0.093545 0.03574 0.18354 0.10187 0.24968 0.06623 0.066152 0.15622 0.10289 0.24978 0.10194 0.09326 9.9e-5 0.18275-0.036917 0.24869-0.10288 0.06593-0.065964 0.10296-0.15545 0.10286-0.24874 2.97e-4 -0.093258-0.03712-0.18267-0.10375-0.24792-0.13969-0.13186-0.35788-0.13186-0.49757 0z"/>
  <path d="m11.047 6.8294c-0.06534 0.065934-0.10197 0.15506-0.10187 0.24792 0 0.12562 0.06702 0.2417 0.17582 0.30451 0.1088 0.062806 0.24285 0.062806 0.35165 0 0.1087-0.062816 0.17572-0.17889 0.17572-0.30451 1.98e-4 -0.092872-0.03653-0.18201-0.10197-0.24792-0.14028-0.13186-0.35897-0.13186-0.49936 0z"/>
  <path d="m9.6424 6.8294c-0.066587 0.065271-0.10398 0.15468-0.1037 0.24792 0 0.12562 0.067023 0.2417 0.17581 0.30451 0.10879 0.062806 0.24283 0.062806 0.35164 0 0.1088-0.062816 0.17582-0.17889 0.17582-0.30451 2.97e-4 -0.093258-0.03722-0.18267-0.10385-0.24792-0.13892-0.13186-0.35678-0.13186-0.49572 0z"/>
  <path d="m13.159 8.7335c0.06583 0.065439 0.15503 0.10211 0.2479 0.10198 0.09356 9.108e-4 0.18345-0.035838 0.24958-0.10198 0.06623-0.066142 0.10296-0.1561 0.10207-0.24964 9.9e-5 -0.092872-0.03663-0.18201-0.10207-0.24792-0.13959-0.13186-0.35788-0.13186-0.49748 0-0.06663 0.065271-0.10405 0.15468-0.10375 0.24792 9.9e-5 0.093684 0.03742 0.1835 0.10375 0.24964z"/>
  <path d="m11.752 8.7335c0.06593 0.065439 0.15503 0.10211 0.2479 0.10198 0.02307 2.574e-4 0.04603-0.00211 0.06851-0.00703 0.02297-0.00375 0.04544-0.010266 0.06692-0.019404 0.02119-0.00869 0.04118-0.019909 0.0597-0.033393 0.01911-0.012078 0.03673-0.026205 0.05267-0.042154 0.06643-0.066102 0.10375-0.15593 0.10385-0.24964 2.97e-4 -0.093258-0.03713-0.18267-0.10385-0.24792-0.01544-0.017018-0.03317-0.031809-0.05267-0.043956-0.01891-0.012821-0.03891-0.023988-0.0597-0.033393-0.02148-0.00911-0.04396-0.015593-0.06692-0.019315-0.11504-0.02276-0.23374 0.013523-0.3164 0.096664-0.06663 0.065271-0.10395 0.15468-0.10375 0.24792 9.9e-5 0.093684 0.03742 0.1835 0.10375 0.24964z"/>
  <path d="m12.248 9.6406c-0.08336-0.081893-0.20166-0.11738-0.3164-0.094862-0.02287 0.00396-0.04524 0.010445-0.06673 0.019315-0.02089 0.00941-0.04089 0.020572-0.0599 0.033393-0.01901 0.012078-0.03673 0.026215-0.05267 0.042154-0.06633 0.066172-0.10365 0.15601-0.10375 0.24972-2.97e-4 0.023027 0.0021 0.046015 7e-3 0.068508 4e-3 0.022928 0.01049 0.045352 0.0194 0.066835 0.0094 0.02089 0.02049 0.04089 0.03336 0.0598 0.02614 0.03782 0.05881 0.07049 0.09662 0.09662 0.01851 0.01346 0.03861 0.02475 0.0599 0.03346 0.02148 0.0088 0.04386 0.01534 0.06673 0.01931 0.02257 0.0049 0.04554 0.0073 0.06861 0.0071 0.09326 2.97e-4 0.18266-0.03722 0.2478-0.10385 0.01703-0.01544 0.03188-0.03317 0.04396-0.05267 0.01287-0.01891 0.02406-0.03891 0.03346-0.0598 0.0089-0.02147 0.01534-0.043896 0.0194-0.066835 5e-3 -0.022493 0.0072-0.045481 7e-3 -0.068508-9.9e-5 -0.093723-0.03742-0.18358-0.10385-0.24972z"/>
  <path d="m12.248 11.049c-0.08257-0.08306-0.20137-0.11939-0.3164-0.09662-0.04564 0.0077-0.0889 0.02574-0.12662 0.05277-0.0195 0.01208-0.03722 0.02693-0.05267 0.04386-0.06663 0.06534-0.10395 0.15474-0.10375 0.248-2.97e-4 0.02297 0.0021 0.04603 7e-3 0.06851 0.0046 0.02277 0.01099 0.04514 0.0194 0.06682 0.0094 0.02089 0.02049 0.04079 0.03336 0.0598 0.01218 0.0195 0.02693 0.03722 0.04396 0.05267 0.06524 0.06663 0.15464 0.10405 0.2479 0.10375 0.02307 2.97e-4 0.04603-0.0021 0.06851-7e-3 0.02297-4e-3 0.04534-0.01049 0.06692-0.0194 0.02079-0.0093 0.04079-0.02049 0.0597-0.03336 0.0195-0.01218 0.03722-0.02693 0.05267-0.04396 0.06643-0.06534 0.10385-0.15464 0.10385-0.2479 0-0.09316-0.03742-0.18246-0.10385-0.2478z"/>
  <path d="m12.292 12.508c-0.01208-0.0195-0.02693-0.03732-0.04396-0.05277-0.1389-0.13187-0.3568-0.13187-0.49569 0-0.01703 0.01544-0.03178 0.03326-0.04396 0.05277-0.01317 0.01931-0.02435 0.0399-0.03336 0.06148-0.0083 0.02109-0.01485 0.04287-0.0193 0.06514-5e-3 0.02247-0.0074 0.04554-0.0071 0.06861 0 0.12553 0.06702 0.24166 0.17582 0.30442 0.1088 0.06287 0.24285 0.06287 0.35165 0 0.1088-0.06277 0.17582-0.17889 0.17582-0.30442 1.98e-4 -0.02307-0.0021-0.04613-7e-3 -0.06861-0.0038-0.02247-0.0103-0.04425-0.0194-0.06514-9e-3 -0.02158-0.0202-0.04217-0.03346-0.06148z"/>
  <path d="m10.344 8.7335c0.06682 0.065191 0.15632 0.10178 0.24968 0.10198 0.09336 9.9e-5 0.18285-0.036917 0.24879-0.10288 0.06593-0.065964 0.10296-0.15545 0.10286-0.24874 2.97e-4 -0.093258-0.03712-0.18267-0.10375-0.24792-0.13969-0.13186-0.35798-0.13186-0.49757 0-0.06544 0.065934-0.10207 0.15506-0.10187 0.24792 1.98e-4 0.093298 0.03673 0.18284 0.10187 0.24964z"/>
 </g>
 <metadata>
  <rdf:RDF>
   <cc:Work rdf:about="">
    <dc:title>Miscellaneous 170 Expended</dc:title>
   </cc:Work>
  </rdf:RDF>
 </metadata>
</svg>
