<svg xmlns="http://www.w3.org/2000/svg" xmlns:xlink="http://www.w3.org/1999/xlink" version="1.1" width="20" height="20" fill="currentColor" x="0px" y="0px" viewBox="0 0 100 100" xml:space="preserve"><polygon points="40.523,6.617 35.02,2.23 36.162,0.796 41.665,5.182 40.523,6.617 "/><path d="M48.799,16.332L48.799,16.332l0.015,0.006c1.194,0.741,7.364,3.276,14.27-3.199c2.776-2.819,4.09-7.109,4.09-7.109  s-2.951,1.324-5.254,0.438c-1.559-0.605-3.11-2.471-3.406-2.842c-0.717-0.809-1.609-1.497-2.654-1.967  c-4.062-1.844-8.856-0.002-10.702,4.1C43.36,9.756,44.999,14.364,48.799,16.332z"/><polygon points="40.075,12.261 32.386,12.248 32.404,10.414 40.093,10.426 40.075,12.261 "/><path d="M82.38,42.826c-0.06-0.115-16.61-19.625-16.61-19.625c-1.396-1.857-3.629-3.791-7.183-3.791h-0.005l-9.207,19.695  l0.068-19.695H45.87c-1.529,0-3.38,0.513-4.571,1.317l-10.122,7.176l-12.115-5.197c-1.847-0.793-3.993,0.062-4.787,1.912  c-0.793,1.85,0.063,3.994,1.913,4.787l13.992,6.003c0.461,0.197,0.95,0.295,1.437,0.295c0.595,0,1.184-0.153,1.718-0.439  c0.019-0.009,12.119-6.714,12.119-6.714c-0.003,0.009-3.984,12.007-6.274,25.167c-2.523,14.506-3.888,42.472-3.888,42.472  c-0.206,4.166,5.278,4.515,6.302,0l8.652-36.711h3.465l-0.007,36.711c0.138,4.381,5.708,4.166,6.39-0.087  c0,0,5.258-28.189,5.258-41.236c0-13.363-4.816-25.296-4.816-25.296s16.12,17.676,16.146,17.699  c0.711,0.751,1.666,1.151,2.637,1.151c0.838,0,1.68-0.287,2.366-0.873C83.082,46.352,83.467,44.274,82.38,42.826z"/></svg>