<svg xmlns="http://www.w3.org/2000/svg" version="1.1" viewBox="0 -5.0 100.0 130.0" width="20" height="20" fill="currentColor" >
 <path d="m94.395 19.672h-8.4492v34.57c0 1.2695-1.0273 2.2969-2.2969 2.2969h-3.6523v13.723h14.398zm-18.992 36.867h-3.6523c-1.2656 0-2.2969-1.0273-2.2969-2.2969v-34.57h-11.207v34.57c0 1.2695-1.0273 2.2969-2.2969 2.2969h-3.6523v13.723h23.105zm-27.699 0h-3.6523c-1.2695 0-2.2969-1.0273-2.2969-2.2969v-34.57h-11.207v34.57c0 1.2695-1.0273 2.2969-2.2969 2.2969h-3.6523v13.723h23.105zm-27.699 0h-3.6523c-1.2695 0-2.2969-1.0273-2.2969-2.2969v-34.57h-8.4531v50.59h14.402zm-16.699-41.461h93.383c1.2695 0 2.2969 1.0273 2.2969 2.2969v65.246c0 1.2695-1.0273 2.2969-2.2969 2.2969h-93.383c-1.2695 0-2.2969-1.0273-2.2969-2.2969v-65.246c0-1.2695 1.0273-2.2969 2.2969-2.2969z"/>
</svg>