<?xml version="1.0" encoding="UTF-8"?>
<svg width="24" height="24" version="1.1" xmlns="http://www.w3.org/2000/svg">
 <g stroke-width=".25399">
  <path d="m13.991 19.55c-0.09427 0-0.18946-0.03571-0.26088-0.10815-0.14386-0.14385-0.14386-0.378 0-0.52288 0.06938-0.06948 0.16375-0.10906 0.2619-0.10906 0.20446 0 0.36902 0.16559 0.36902 0.36892 0 0.14294-0.08019 0.26588-0.19834 0.3276-0.05367 0.02969-0.11314 0.04356-0.17171 0.04356z"/>
  <path d="m13.924 23.822c-0.17365 0-0.3274-0.12202-0.36208-0.29863l-0.69356-3.5617c-0.86323 0.18446-1.7631 0.15773-2.6243-0.08233l-0.0088-2e-3c-0.02377-0.0069-0.04877-0.01388-0.07254-0.02092-0.92266-0.26887-1.773-0.76594-2.4556-1.4386-0.69055-0.68071-1.1946-1.528-1.4575-2.4486-0.381-1.3336-0.23218-2.7027 0.44249-4.068 0.54869-1.1102 1.3315-1.9794 1.8911-2.5122 0.24804-0.23614 0.52584-0.46135 0.85128-0.69154 0.28871-0.20341 0.62009-0.48617 0.98626-0.84036l-0.84042-4.1533c-0.1766-0.8731 0.00887-1.774 0.50996-2.4715 0.37596-0.52386 0.85129-0.85722 1.4149-0.99214 1.0914-0.26092 2.2124 0.32344 2.6648 1.389 0.40391 0.95248 0.52288 2.5032-1.2014 4.4906-0.08131 0.10419-0.84333 1.0676-1.7442 1.9814l0.72927 3.6016c0.2719-0.05652 0.54961-0.08529 0.8314-0.08529 2.2413 0 4.0639 1.8256 4.0639 4.069 0 0.09713-9e-3 0.21027-0.02489 0.33729-0.12202 0.93658-0.56848 1.8215-1.256 2.4912-0.41483 0.40493-0.88914 0.74019-1.4099 0.99821-0.0011 0-0.0011 8.16e-4 -0.0011 8.16e-4 -0.1864 0.09233-0.37882 0.17477-0.5744 0.24516l0.70652 3.6245c0.03867 0.20027-0.09131 0.39392-0.29169 0.4336-0.02581 0.0019-0.04969 5e-3 -0.07346 5e-3zm-3.3316-15.117c-0.26292 0.23713-0.50798 0.43554-0.73222 0.59429-0.29468 0.20834-0.54667 0.41273-0.76692 0.62305-1.1162 1.0636-2.8772 3.2364-2.1331 5.8419 0.45937 1.6073 1.767 2.9031 3.4131 3.3821 0.02387 7e-3 0.04377 0.01286 0.06448 0.01877l0.0067 2e-3c0.74814 0.20844 1.5301 0.23129 2.2801 0.06958l-1.3314-6.5773c-1.1718 0.53777-1.9338 1.7067-1.9338 3.0251 0 0.72733 0.23018 1.4178 0.66479 1.9982 0.12202 0.16273 0.08927 0.39483-0.07346 0.51686-0.16372 0.12202-0.39489 0.08927-0.51694-0.07437-0.53176-0.70836-0.81252-1.5527-0.81252-2.4407 0-1.6709 1.0011-3.1442 2.5231-3.7651zm1.5071 3.7197 1.3355 6.598c0.13284-0.05152 0.26394-0.10906 0.39188-0.17262 9.18e-4 0 9.18e-4 -0.0011 2e-3 -0.0011 0.45136-0.22313 0.86302-0.51481 1.2223-0.86506 0.5695-0.55562 0.93862-1.2858 1.0398-2.0588 0.01296-0.09519 0.01887-0.17752 0.01887-0.2421 0-1.8354-1.4912-3.3296-3.3248-3.3296-0.23313 1e-3 -0.46237 0.02489-0.6856 0.07152zm-0.073457-11.509c-0.116 0-0.23313 0.013886-0.35025 0.041667-0.38494 0.092271-0.71723 0.3294-0.98617 0.70442-0.38096 0.53181-0.52196 1.2223-0.38596 1.894l0.7411 3.6621c0.74712-0.79967 1.3395-1.5537 1.3465-1.5626 0.0039-0.00496 8e-3 -0.00992 0.01184-0.014875 1.1718-1.3474 1.5478-2.6352 1.0854-3.7235-0.2619-0.61714-0.84436-1.0011-1.4624-1.0011z"/>
  <path d="m12.784 17.996h-9e-3c-0.20425 0-0.36902-0.16569-0.36902-0.36912 0-0.20436 0.16569-0.36902 0.36902-0.36902h9e-3c0.86619 0 1.5706-0.7055 1.5706-1.5726 0-0.86721-0.70438-1.5726-1.5706-1.5726-0.21527 0-0.42269 0.04265-0.61704 0.1259-0.18762 0.0805-0.40483-0.0059-0.48523-0.19334-0.0804-0.18752 0.0059-0.40483 0.19344-0.48512 0.28771-0.12406 0.59327-0.1866 0.90985-0.1866 1.2729 0 2.3087 1.0367 2.3087 2.3118-1e-3 1.2739-1.0367 2.3108-2.3097 2.3108z"/>
  <path d="m14.261 10.505c-0.61112 0-1.1082-0.49808-1.1082-1.1092 0-0.61117 0.49696-1.1092 1.1082-1.1092 0.61123 0 1.1082 0.49807 1.1082 1.1092 0 0.61226-0.49696 1.1092-1.1082 1.1092zm0-1.4793c-0.20333 0-0.36902 0.1657-0.36902 0.37006 0 0.20439 0.16569 0.37011 0.36902 0.37011 0.20344 0 0.36912-0.16573 0.36912-0.37011 9.18e-4 -0.20438-0.16467-0.37006-0.36912-0.37006z"/>
  <path d="m7.0124 21.974c-0.61116 0-1.1082-0.49706-1.1082-1.1082 0-0.61133 0.49706-1.1083 1.1082-1.1083 0.61119 0 1.1082 0.49696 1.1082 1.1083 0 0.61113-0.49706 1.1082-1.1082 1.1082zm0-1.4782c-0.20339 0-0.36907 0.16569-0.36907 0.36902 0 0.20333 0.16569 0.36912 0.36907 0.36912 0.20339 0 0.36907-0.16579 0.36907-0.36912 0-0.20334-0.16569-0.36902-0.36907-0.36902z"/>
  <path d="m18.835 13.846h-3.0865c-0.20425 0-0.36902-0.16569-0.36902-0.36902 0-0.20446 0.16569-0.36902 0.36902-0.36902l3.0865-1e-3c0.20435 0 0.36923 0.16569 0.36923 0.36902 0 0.20446-0.16579 0.37014-0.36923 0.37014z"/>
  <path d="m6.5252 13.846h-1.3603c-0.20439 0-0.36908-0.16569-0.36908-0.36902 0-0.20446 0.16569-0.36902 0.36908-0.36902h1.3593c0.20438 0 0.36907 0.16558 0.36907 0.36902 9.386e-4 0.20333-0.16471 0.36902-0.36808 0.36902z"/>
 </g>
</svg>
