<?xml version="1.0" encoding="iso-8859-1"?>
<!-- Uploaded to: SVG Repo, www.svgrepo.com, Generator: SVG Repo Mixer Tools -->
<svg width="20" height="20" fill="currentColor" version="1.1" id="Layer_1" xmlns="http://www.w3.org/2000/svg" xmlns:xlink="http://www.w3.org/1999/xlink" 
	 viewBox="0 0 512 512" xml:space="preserve">
<g>
	<g>
		<rect x="350.768" width="34.909" height="512"/>
	</g>
</g>
<g>
	<g>
		<path d="M317.123,371.819c-10.584-2.313-18.268-11.871-18.268-22.728c0-8.336,4.514-16.087,11.778-20.231l8.809-5.021v-52.175
			c0-40.568-32.885-73.591-73.399-73.834V81.455h11.636V0h-58.182v81.455h11.636V197.83c-40.513,0.243-73.399,33.266-73.399,73.834
			v52.175l8.809,5.021c7.266,4.144,11.778,11.895,11.778,20.231c0,10.857-7.683,20.415-18.269,22.727l-13.731,2.998v53.752
			c0,46.004,37.428,83.433,83.433,83.433h37.666c46.004,0,83.433-37.428,83.433-83.433v-53.751L317.123,371.819z M209.756,477.091
			c-26.757,0-48.524-21.768-48.524-48.524v-3.798h8.703c29.905,0,54.669,23.091,57.368,52.322H209.756z M246.043,366.545h-34.909
			v-34.909h34.909V366.545z"/>
	</g>
</g>
</svg>