<svg xmlns="http://www.w3.org/2000/svg" version="1.1" xmlns:xlink="http://www.w3.org/1999/xlink" width="1000" height="1000"><g clip-path="url(#SvgjsClipPath1071)"><rect width="1000" height="1000" fill="#261130"></rect><g transform="matrix(8,0,0,8,100,100)"><svg xmlns="http://www.w3.org/2000/svg" version="1.1" xmlns:xlink="http://www.w3.org/1999/xlink" width="100" height="100"><svg width="100" height="100" version="1.1" viewBox="0 0 26.458 26.458" xmlns="http://www.w3.org/2000/svg">
 <g transform="matrix(.93159 0 0 .93159 .90522 .90486)" stroke-width=".24577" aria-label="L">
  <path d="m23.055 18.792q0.02097 0.02097-0.02097 0.06292-0.10486 0.08389-0.2307 0.14681-0.10486 0.06292-0.20973 0.12584-0.81794 0.35654-1.6359 0.73404-0.81794 0.35654-1.6359 0.71307-1.2164 0.50334-2.4328 0.96474-1.2164 0.48237-2.4538 0.9228-1.9714 0.73404-3.9848 1.3842-1.9924 0.65015-4.0687 0.98572-0.35654 0.06292-0.81794 0.10486t-0.9228-0.02097q-0.44043-0.06292-0.79696-0.29362-0.33556-0.20973-0.41945-0.6921-0.10486-0.50334 0.16778-1.0277 0.27265-0.50334 0.52432-0.9228 0.75502-1.1954 1.6359-2.286 0.88085-1.1116 1.7827-2.1812 1.8037-2.1602 3.6492-4.2155 1.8666-2.0763 3.7961-4.1316 1.8666-2.0134 3.7541-3.9429 0.77599-0.79696 1.552-1.573 0.77599-0.79696 1.5939-1.531 0.02097-0.020973 0.14681-0.12584 0.14681-0.12584 0.31459-0.25167 0.16778-0.12584 0.29362-0.18875 0.14681-0.083891 0.16778-0.020973 0.04195 0.083891-0.04195 0.20973-0.06292 0.10486-0.10486 0.16778-0.71307 1.1535-1.573 2.2231-0.85988 1.0486-1.7198 2.0763-1.7617 2.1602-3.5654 4.2365-1.7827 2.0763-3.6073 4.1736-0.94377 1.0906-1.8666 2.1602-0.9228 1.0696-1.8666 2.1812-0.48237 0.54529-0.94377 1.1116-0.44043 0.54529-0.88085 1.1116-0.44043 0.54529-0.85988 1.1116t-0.75502 1.1745q1.3213 0 2.5796-0.29362 1.2793-0.27264 2.5377-0.58724 1.2584-0.31459 2.4748-0.6921 1.2374-0.35654 2.4958-0.71307 1.6988-0.50334 3.3766-1.0696 1.6988-0.56626 3.3976-1.0486 0.02097 0 0.20973-0.06292 0.18875-0.06292 0.39848-0.12584t0.37751-0.08389q0.16778-0.04194 0.18875 0z" fill="#22d3ee"></path>
 </g>
</svg></svg></g></g><defs><clipPath id="SvgjsClipPath1071"><rect width="1000" height="1000" x="0" y="0" rx="350" ry="350"></rect></clipPath></defs></svg>